<?xml version="1.0" standalone="no"?>
<!DOCTYPE svg PUBLIC "-//W3C//DTD SVG 20010904//EN"
 "http://www.w3.org/TR/2001/REC-SVG-20010904/DTD/svg10.dtd">
<svg version="1.0" xmlns="http://www.w3.org/2000/svg"
 width="1280.000000pt" height="519.000000pt" viewBox="0 0 1280.000000 519.000000"
 preserveAspectRatio="xMidYMid meet">

<g transform="translate(0.000000,519.000000) scale(0.100000,-0.100000)"
fill="#000000" stroke="none">
<path d="M4173 4110 c-71 -16 -105 -58 -143 -170 -28 -81 -39 -335 -21 -475
15 -122 60 -358 71 -376 11 -17 111 -19 132 -1 12 9 14 33 10 114 l-4 103 46
61 c87 117 153 159 186 119 17 -21 8 -110 -20 -200 -18 -56 -30 -77 -63 -105
-105 -90 -147 -137 -147 -164 0 -101 142 -181 226 -127 18 10 43 35 58 53 29
39 108 195 125 250 10 31 25 44 106 92 51 31 96 56 99 56 3 0 6 -77 6 -171 0
-246 18 -299 100 -299 69 0 74 13 82 246 9 228 10 232 100 370 55 83 120 118
156 82 27 -27 8 -123 -47 -243 -37 -78 -38 -80 -85 -93 -66 -17 -94 -39 -107
-82 -33 -110 115 -193 219 -122 47 31 73 63 112 133 19 35 43 60 81 84 l54 34
11 -48 c16 -67 61 -146 116 -203 40 -42 52 -48 90 -50 135 -5 199 23 315 139
l83 81 19 -42 c37 -85 118 -113 179 -62 43 37 87 128 142 294 55 163 59 162
30 -8 -33 -188 -24 -274 33 -331 39 -40 72 -46 115 -23 69 37 114 127 189 380
20 70 39 122 41 116 1 -5 -6 -64 -18 -129 -34 -200 -23 -302 37 -356 76 -67
176 -20 275 131 23 34 45 62 50 62 4 0 8 -14 8 -31 0 -47 29 -98 72 -126 32
-22 45 -25 83 -20 55 8 140 50 223 111 34 25 63 46 65 46 1 0 0 -22 -1 -49 -3
-45 -1 -51 36 -90 40 -42 55 -47 132 -41 85 5 168 73 252 204 54 84 100 184
92 198 -11 17 -26 4 -102 -94 -98 -127 -179 -206 -212 -210 l-25 -3 1 95 c1
65 10 131 28 210 39 164 42 193 21 210 -28 23 -108 19 -143 -7 -27 -20 -32
-21 -43 -7 -26 32 -110 66 -145 60 -77 -15 -131 -139 -122 -281 6 -89 23 -119
86 -152 l42 -21 -26 -21 c-33 -26 -91 -44 -124 -39 -24 3 -25 6 -25 83 0 44 2
98 5 120 5 38 3 41 -30 58 -23 11 -52 16 -83 15 l-48 -3 -23 -68 c-36 -106
-154 -265 -190 -254 -6 2 -19 20 -29 40 -18 36 -18 39 9 179 48 256 49 264 31
292 -28 43 -129 47 -176 8 -13 -11 -32 -56 -51 -121 -46 -153 -98 -285 -129
-322 -59 -70 -66 -4 -21 216 44 215 40 241 -36 254 -74 13 -154 -27 -154 -76
0 -23 -80 -263 -110 -329 -30 -67 -47 -84 -62 -63 -9 14 -5 120 8 191 6 33 4
38 -24 52 -17 9 -51 16 -76 16 -57 0 -76 -24 -76 -93 0 -57 -31 -106 -122
-193 -69 -67 -96 -84 -131 -84 -41 0 -64 16 -86 58 -39 79 -38 82 46 132 91
55 187 139 225 199 21 34 28 57 28 94 0 45 -4 54 -43 92 -57 57 -108 72 -200
56 -88 -15 -152 -47 -209 -109 -53 -56 -79 -104 -102 -184 -14 -46 -24 -61
-57 -83 l-41 -27 8 54 c16 95 11 249 -9 285 -22 42 -64 63 -122 63 -80 0 -164
-62 -234 -174 l-31 -50 1 40 c0 21 4 65 8 97 6 52 5 59 -16 79 -30 28 -117 31
-155 6 -28 -19 -38 -68 -38 -198 0 -61 -3 -77 -17 -86 -10 -6 -47 -27 -83 -47
l-66 -36 1 102 c0 80 -4 109 -18 135 -47 86 -166 96 -261 21 -16 -12 -27 -19
-25 -13 3 5 17 36 32 69 72 154 77 316 12 393 -40 48 -156 73 -242 52z m193
-116 c9 -36 -2 -119 -27 -200 -27 -88 -92 -244 -101 -244 -19 0 2 267 29 363
9 32 25 69 35 83 26 32 56 31 64 -2z m1637 -391 c9 -21 7 -33 -17 -78 -15 -30
-51 -76 -80 -103 -51 -49 -133 -99 -143 -88 -18 17 40 157 94 232 53 71 122
88 146 37z m1673 -35 c30 -23 -47 -238 -88 -246 -23 -5 -34 87 -18 163 18 88
59 120 106 83z m-2546 -428 c0 -5 -9 -14 -19 -20 -25 -13 -38 5 -14 19 23 13
33 14 33 1z m-816 -105 c-15 -23 -34 -33 -34 -18 0 10 32 43 42 43 5 0 1 -11
-8 -25z"/>
<path d="M3335 4041 c-179 -61 -368 -180 -511 -321 -80 -78 -184 -206 -197
-244 -11 -29 18 -66 52 -66 23 0 38 14 94 88 146 196 365 359 588 437 37 13
39 13 39 -6 0 -56 -43 -99 -161 -161 -101 -53 -174 -106 -263 -189 -74 -69
-84 -90 -62 -124 28 -43 59 -33 144 48 85 81 165 138 259 186 73 37 83 38 83
11 0 -51 -29 -89 -102 -136 -112 -71 -158 -112 -158 -139 0 -52 55 -71 100
-34 40 33 142 99 153 99 22 0 -1 -91 -33 -131 -24 -30 -30 -46 -26 -65 7 -28
41 -45 71 -34 34 12 83 86 96 145 10 47 10 64 -5 119 -13 47 -15 69 -7 83 19
36 23 116 8 165 -13 41 -13 53 1 102 26 95 -9 197 -68 196 -8 -1 -51 -13 -95
-29z"/>
<path d="M2700 3300 c-249 -54 -548 -205 -810 -409 -161 -124 -197 -168 -154
-185 9 -3 416 -6 905 -6 l889 0 0 68 c0 254 -173 465 -436 532 -101 26 -275
26 -394 0z m413 -118 c63 -23 157 -78 157 -93 0 -4 -51 -10 -112 -11 -107 -3
-113 -4 -116 -25 -5 -36 27 -44 171 -42 l132 2 32 -64 c18 -35 35 -81 39 -101
l6 -38 -159 0 -159 0 -43 44 c-50 51 -132 91 -218 107 -139 27 -495 -28 -793
-120 -35 -11 -66 -19 -68 -17 -2 3 54 42 125 89 208 139 428 239 615 282 97
22 316 15 391 -13z m-196 -311 c28 -13 59 -31 69 -42 17 -19 10 -19 -371 -19
-222 0 -385 4 -380 9 11 10 237 57 340 70 39 5 120 8 180 7 88 -2 120 -7 162
-25z"/>
<path d="M7404 2806 c-18 -13 -22 -29 -27 -118 -3 -57 -9 -113 -14 -125 -5
-12 -44 -50 -88 -84 -130 -99 -118 -107 -113 80 5 183 3 188 -70 198 -34 5
-45 1 -65 -19 -22 -22 -26 -23 -43 -10 -36 27 -119 62 -150 62 -70 0 -158
-100 -190 -219 -14 -51 -24 -68 -49 -82 -16 -11 -33 -19 -37 -19 -4 0 -5 29
-1 65 15 161 -73 259 -232 259 -82 0 -134 -23 -184 -80 -45 -51 -52 -75 -49
-175 l3 -87 -58 -85 c-62 -92 -91 -112 -114 -81 -25 34 -25 59 1 218 14 86 26
169 26 185 0 40 -30 63 -85 63 -71 2 -96 -22 -121 -120 -50 -186 -100 -312
-124 -312 -16 0 -22 68 -13 136 11 76 4 89 -54 100 -46 9 -87 -6 -91 -31 -2
-12 -23 -32 -53 -48 l-49 -28 6 68 c9 94 -7 148 -60 198 -114 110 -318 79
-388 -58 -18 -35 -20 -53 -15 -121 6 -91 0 -110 -77 -214 -53 -72 -80 -79
-105 -27 -13 26 -11 47 13 190 31 191 32 209 6 235 -26 26 -94 27 -136 1 -26
-16 -33 -30 -49 -92 -22 -93 -72 -243 -96 -290 -21 -41 -42 -54 -58 -35 -12
14 -9 43 27 261 22 129 17 150 -38 166 -43 13 -98 0 -122 -29 -8 -9 -23 -48
-33 -87 -44 -169 -99 -315 -120 -315 -16 0 -28 59 -20 105 17 112 18 103 -14
120 -39 19 -95 19 -115 -1 -19 -18 -22 -175 -6 -236 14 -50 70 -98 115 -98 66
0 130 111 186 320 27 103 39 121 28 43 -24 -169 -29 -231 -23 -268 18 -111
100 -167 168 -114 51 40 90 132 150 354 28 103 32 82 11 -55 -25 -159 -17
-226 33 -281 75 -83 180 -25 283 158 18 32 34 60 35 62 8 10 34 -24 34 -43 0
-12 12 -46 26 -74 56 -112 150 -107 263 12 36 39 70 64 105 77 28 11 55 25 60
30 19 18 26 8 26 -36 0 -127 100 -206 177 -141 37 31 81 127 128 276 38 122
39 118 14 -72 -15 -123 -3 -192 42 -238 24 -24 39 -30 73 -30 68 0 126 54 208
193 32 56 42 66 54 56 8 -6 14 -18 14 -27 0 -36 27 -98 56 -128 26 -29 38 -34
76 -34 55 0 119 38 174 104 21 25 41 46 45 46 6 0 87 35 110 47 4 2 9 -13 12
-32 10 -60 47 -125 90 -156 67 -49 148 -37 225 34 l22 20 0 -20 c0 -15 -27
-42 -86 -88 -105 -82 -144 -133 -144 -187 0 -53 13 -74 62 -99 54 -27 154 -24
195 7 64 47 106 145 131 302 l16 103 42 24 c23 13 66 44 96 69 l56 45 -5 -63
c-9 -112 41 -219 115 -247 46 -17 106 7 177 72 36 32 77 65 93 73 16 8 34 22
41 30 20 23 29 20 36 -15 8 -35 68 -83 125 -100 29 -9 47 -8 76 1 51 17 153
120 189 190 l27 54 14 -33 c8 -18 14 -38 14 -43 0 -5 -34 -52 -75 -103 -41
-52 -75 -101 -75 -109 0 -11 20 -26 34 -26 2 0 34 38 71 85 38 47 71 85 75 85
3 0 16 -21 29 -46 34 -72 68 -110 116 -133 54 -25 115 -27 161 -5 79 38 175
194 214 348 25 101 26 139 3 134 -13 -2 -29 -39 -59 -131 -46 -140 -78 -202
-125 -241 -58 -49 -128 -26 -169 55 -25 49 -53 166 -43 182 4 7 40 56 80 110
104 140 128 184 113 202 -7 8 -18 15 -26 15 -7 0 -53 -57 -101 -127 l-88 -128
-13 90 c-22 155 -21 153 -45 161 -54 17 -159 -15 -174 -53 -4 -9 4 -60 16
-114 21 -93 21 -99 5 -141 -9 -23 -34 -67 -56 -95 -78 -107 -158 -110 -171 -8
-6 54 9 184 34 274 11 41 18 80 15 87 -3 7 -29 18 -59 24 -44 10 -59 10 -83
-1 -26 -13 -31 -23 -46 -97 -9 -46 -19 -126 -23 -178 -7 -88 -9 -96 -35 -114
l-27 -19 5 48 c9 98 -56 177 -161 197 -37 6 -38 8 -33 38 19 112 19 122 -6
150 -29 34 -92 45 -124 22z m-967 -93 c35 -23 63 -92 63 -156 0 -79 -12 -105
-62 -127 -42 -19 -148 -28 -148 -12 0 51 55 289 72 309 12 15 39 10 75 -14z
m-1189 -18 c16 -14 37 -40 46 -59 16 -34 21 -130 10 -174 -11 -40 -131 -84
-184 -67 -17 6 -20 12 -15 43 12 73 47 235 55 258 12 32 50 31 88 -1z m937
-27 c-7 -24 -16 -56 -20 -72 -5 -22 -9 -26 -15 -16 -10 17 -3 64 17 103 21 42
33 32 18 -15z m-1184 4 c-6 -11 -16 -44 -22 -74 -10 -43 -13 -49 -20 -32 -10
28 4 90 27 115 21 23 30 18 15 -9z m1987 -29 c18 -16 19 -26 12 -103 -11 -129
-83 -262 -128 -234 -56 36 -28 306 37 344 25 15 57 12 79 -7z m634 -191 c34
-31 45 -80 26 -118 -15 -31 -80 -57 -133 -52 -27 3 -30 6 -27 33 4 50 41 163
55 168 20 8 50 -4 79 -31z m-1242 -116 c0 -2 -13 -9 -29 -14 -22 -8 -34 -7
-48 3 -16 13 -13 14 30 15 26 0 47 -2 47 -4z m-1207 -24 c-21 -15 -65 -12 -70
4 -3 8 12 11 42 10 39 -1 43 -3 28 -14z m2382 -92 c-3 -5 -22 -10 -41 -10 -19
0 -34 5 -34 10 0 6 18 10 41 10 24 0 38 -4 34 -10z m-599 -97 c-19 -75 -27
-101 -46 -131 -17 -28 -23 -31 -40 -22 -36 19 -26 62 31 124 28 31 53 56 56
56 3 0 2 -12 -1 -27z"/>
<path d="M2483 2577 c-45 -22 -55 -37 -25 -37 10 0 25 -9 35 -20 34 -41 76
-12 61 42 -12 40 -19 42 -71 15z m53 -18 c10 -17 -13 -36 -27 -22 -12 12 -4
33 11 33 5 0 12 -5 16 -11z"/>
<path d="M3385 2570 c-19 -38 -20 -35 16 -50 17 -7 35 -24 40 -37 5 -13 13
-21 19 -18 20 12 10 35 -25 57 -19 13 -35 26 -35 30 0 16 22 18 49 3 33 -17
51 -19 51 -7 0 7 -82 52 -95 52 -2 0 -11 -13 -20 -30z"/>
<path d="M2837 2582 c6 -4 13 -28 16 -52 l4 -45 1 53 c2 44 -1 52 -15 52 -12
0 -14 -3 -6 -8z"/>
<path d="M2897 2584 c-14 -14 -7 -54 9 -54 11 0 14 -6 9 -22 -6 -23 -6 -23 15
1 26 31 23 75 -5 79 -12 2 -24 0 -28 -4z m39 -15 c10 -17 -13 -36 -27 -22 -12
12 -4 33 11 33 5 0 12 -5 16 -11z"/>
<path d="M2977 2583 c-4 -3 -7 -24 -7 -45 0 -42 20 -59 49 -41 34 22 25 93
-13 93 -12 0 -26 -3 -29 -7z m41 -40 c-4 -52 -28 -56 -28 -4 0 30 4 41 16 41
11 0 14 -9 12 -37z"/>
<path d="M3060 2566 c0 -16 7 -26 21 -29 24 -7 20 -33 -5 -31 -9 1 -16 -2 -16
-7 0 -15 48 -10 54 6 8 21 -3 45 -20 45 -20 0 -17 28 4 33 10 3 6 5 -10 6 -23
1 -28 -3 -28 -23z"/>
<path d="M3326 2473 l-19 -26 39 -33 c21 -18 42 -33 46 -34 11 0 48 57 41 64
-4 4 -15 -3 -24 -16 -21 -27 -39 -16 -20 13 17 28 6 36 -19 14 -27 -24 -36
-13 -15 19 24 36 -3 35 -29 -1z"/>
<path d="M2522 2478 c-17 -17 -15 -64 4 -82 35 -35 94 -12 94 37 0 41 -15 57
-55 57 -17 0 -36 -5 -43 -12z m72 -30 c8 -14 7 -21 -6 -34 -30 -30 -75 9 -48
42 16 18 39 15 54 -8z"/>
<path d="M3285 2418 c-4 -10 -5 -25 -2 -33 9 -21 -10 -29 -21 -9 -5 10 -15 14
-21 10 -9 -6 -9 -11 0 -22 17 -20 5 -28 -21 -14 -14 8 -26 8 -32 2 -6 -6 2
-14 21 -22 25 -10 31 -18 31 -42 0 -19 4 -28 13 -25 7 2 11 17 8 38 -3 34 -3
34 18 15 24 -22 41 -15 21 9 -17 21 -4 32 20 17 11 -7 24 -12 30 -12 19 0 10
17 -15 28 -14 7 -28 24 -33 44 -8 27 -11 30 -17 16z"/>
<path d="M2620 2380 c-11 -11 -20 -27 -20 -35 0 -18 43 -65 60 -65 18 0 10 28
-10 33 -22 6 -27 36 -8 55 17 17 24 15 47 -9 11 -12 21 -16 25 -10 9 14 -30
51 -54 51 -11 0 -29 -9 -40 -20z"/>
<path d="M2716 2310 c-18 -46 -20 -60 -7 -60 5 0 16 18 25 40 14 36 18 39 36
30 24 -13 24 -9 5 -53 -18 -43 -18 -47 -5 -47 9 0 50 80 50 96 0 6 -65 34 -79
34 -5 0 -16 -18 -25 -40z"/>
<path d="M3093 2294 c-31 -35 -18 -67 31 -75 32 -5 40 -2 61 23 29 35 30 41 9
62 -24 25 -75 20 -101 -10z m82 -17 c0 -24 -18 -23 -27 3 -6 17 -4 21 10 18 9
-2 17 -11 17 -21z m-42 -17 c3 -13 0 -20 -8 -20 -18 0 -28 17 -21 36 7 19 22
11 29 -16z"/>
<path d="M2836 2259 c-7 -54 -1 -75 15 -47 5 10 16 15 23 12 20 -8 57 32 49
52 -6 15 -42 34 -67 34 -9 0 -16 -19 -20 -51z m64 6 c0 -16 -27 -27 -36 -14
-3 5 -3 16 0 24 6 17 36 9 36 -10z"/>
<path d="M2980 2293 c-21 -7 -40 -33 -40 -55 0 -24 35 -58 60 -58 25 0 60 34
60 58 0 37 -44 67 -80 55z m45 -53 c0 -18 -6 -26 -23 -28 -13 -2 -25 3 -28 12
-10 26 4 48 28 44 17 -2 23 -10 23 -28z"/>
<path d="M3908 1593 c-54 -8 -58 -28 -58 -255 0 -194 1 -209 20 -228 27 -27
61 -34 130 -27 77 8 160 41 192 75 32 34 42 93 24 137 -30 71 -100 110 -218
120 l-78 7 0 49 0 48 103 3 c56 2 116 2 134 0 30 -3 32 -6 35 -45 3 -39 5 -42
33 -42 30 0 30 1 33 60 1 33 -2 66 -7 74 -5 8 -31 17 -57 22 -50 8 -237 9
-286 2z m149 -259 c50 -7 93 -49 93 -90 0 -24 -6 -38 -22 -48 -34 -22 -154
-49 -183 -42 -25 6 -25 8 -25 102 l0 95 53 -6 c28 -3 66 -8 84 -11z"/>
<path d="M4575 1581 c-42 -10 -77 -35 -112 -79 -52 -64 -56 -79 -49 -160 7
-92 31 -146 84 -194 44 -39 85 -55 172 -64 108 -12 181 27 220 118 19 44 22
65 18 137 -3 77 -7 91 -37 137 -47 71 -126 114 -207 113 -33 -1 -73 -4 -89 -8z
m171 -91 c64 -36 94 -91 94 -168 0 -64 -19 -112 -55 -140 -22 -18 -41 -22 -94
-22 -133 0 -201 67 -201 198 0 59 2 65 38 103 60 65 139 75 218 29z"/>
<path d="M5153 1580 c-82 -12 -86 -15 -80 -56 3 -20 11 -42 18 -50 18 -22 48
-17 61 11 8 18 19 25 40 25 l28 0 0 -174 c0 -165 -1 -174 -20 -179 -22 -6 -27
-36 -8 -55 7 -7 37 -12 68 -12 31 0 61 5 68 12 20 20 14 48 -13 60 -24 11 -25
14 -25 108 0 53 3 131 6 173 l7 77 38 0 c31 0 38 -4 41 -21 4 -31 32 -46 52
-30 22 19 22 107 0 115 -21 8 -216 5 -281 -4z"/>
<path d="M5639 1574 c-13 -15 -10 -46 28 -365 5 -41 3 -47 -17 -52 -17 -4 -21
-12 -18 -34 3 -28 4 -28 73 -28 69 0 70 0 73 28 3 21 -1 30 -16 34 -16 4 -20
17 -25 81 -3 42 -3 79 -1 82 9 8 196 6 226 -3 27 -7 27 -8 30 -109 3 -106 14
-129 52 -115 14 5 16 25 16 137 0 72 -5 163 -11 201 -10 63 -9 73 7 90 14 15
16 24 8 37 -15 24 -125 29 -144 8 -16 -20 -6 -46 20 -53 21 -6 25 -15 35 -78
l6 -40 -130 0 -130 0 -5 35 c-3 19 -8 57 -12 83 -9 67 -37 94 -65 61z"/>
<path d="M6281 1581 c-47 -8 -63 -36 -34 -61 22 -17 23 -25 25 -221 l3 -204
27 0 c20 0 34 11 60 47 55 79 209 273 219 276 5 2 9 -52 9 -125 0 -117 -2
-129 -20 -141 -22 -13 -26 -42 -9 -59 12 -12 98 -5 117 10 17 13 15 44 -4 55
-16 9 -17 63 -1 372 2 39 -1 45 -18 48 -24 3 -135 -109 -233 -236 -35 -45 -68
-82 -73 -82 -5 0 -9 54 -9 123 0 110 2 124 20 140 25 21 26 43 1 57 -21 11
-27 11 -80 1z"/>
<path d="M6883 1574 c-43 -18 -48 -40 -15 -71 l27 -25 1 -182 c0 -101 4 -188
8 -194 4 -7 16 -12 27 -12 26 0 39 37 39 111 0 66 3 68 65 40 42 -19 88 -66
117 -120 31 -56 80 -30 64 34 -9 36 -94 124 -144 149 l-46 23 85 61 c109 78
137 104 145 136 13 55 -45 77 -71 27 -8 -16 -45 -49 -82 -74 -38 -25 -79 -57
-92 -71 -14 -14 -28 -26 -31 -26 -4 0 -11 28 -14 61 -6 54 -5 64 13 81 27 24
26 34 -2 52 -26 17 -50 17 -94 0z"/>
<path d="M7465 1581 c-34 -5 -40 -10 -43 -33 -2 -19 2 -28 17 -33 20 -6 21
-15 23 -213 3 -204 3 -207 25 -210 14 -2 28 6 40 23 10 14 50 66 89 114 39 49
88 112 108 140 21 28 42 51 47 51 5 0 9 -58 9 -130 0 -73 -4 -130 -9 -130 -12
0 -41 -29 -41 -40 0 -24 31 -38 72 -33 73 10 98 34 63 63 -12 10 -15 40 -15
154 0 77 5 161 11 186 23 100 -18 120 -92 43 -24 -27 -87 -102 -139 -167 l-95
-120 -3 134 c-2 124 -1 134 18 147 24 17 25 27 4 47 -16 17 -23 17 -89 7z"/>
<path d="M2580 1565 c-5 -6 -12 -23 -15 -38 -6 -21 -3 -31 10 -41 21 -15 33
-86 34 -196 1 -91 -5 -118 -30 -125 -23 -7 -25 -38 -4 -55 18 -15 86 -24 119
-16 33 8 37 55 6 63 -16 4 -20 14 -20 44 0 34 3 39 28 45 105 23 198 78 227
134 23 44 30 116 15 145 -25 46 -66 56 -221 53 -78 -2 -144 -7 -149 -13z m278
-61 c29 -8 30 -61 1 -98 -26 -33 -94 -73 -140 -81 l-36 -7 -8 84 c-4 45 -7 85
-6 88 1 13 149 24 189 14z"/>
<path d="M3380 1513 c-32 -35 -77 -99 -110 -158 -30 -55 -74 -127 -97 -160
-24 -32 -43 -66 -43 -75 0 -21 19 -40 40 -40 12 0 79 90 126 168 1 2 48 -2
104 -9 l102 -13 20 -41 c12 -22 24 -53 28 -70 6 -29 8 -30 54 -28 52 3 86 17
86 36 0 22 -18 40 -41 42 -13 1 -27 3 -30 4 -3 0 -17 22 -32 49 -31 57 -47
115 -93 330 -9 42 -52 29 -114 -35z m76 -125 c7 -35 13 -67 14 -72 0 -9 -117
-2 -127 7 -5 6 41 83 70 114 11 13 22 21 25 19 2 -3 10 -33 18 -68z"/>
</g>
</svg>
